<svg width="100" height="91" viewBox="0 0 100 91" fill="none" xmlns="http://www.w3.org/2000/svg">
<path d="M13.615 90.8365C13.55 90.8365 13.49 90.8365 13.42 90.8315C11.845 90.7515 10.3 90.4115 8.83001 89.8165C1.59501 86.8765 -1.89499 78.6115 1.04001 71.3815L37.645 7.25154C38.905 4.97154 40.815 3.06154 43.145 1.77154C49.97 -2.00846 58.6 0.476537 62.375 7.29654L98.74 70.9365C99.55 72.8415 99.895 74.3915 99.98 75.9715C100.175 79.7515 98.885 83.3765 96.355 86.1815C93.825 88.9865 90.35 90.6415 86.575 90.8315L13.975 90.8365H13.615Z" fill="#D6E4FF"/>
<path className="animate" d="M50 61.9495C47.59 61.9495 45.625 63.9245 45.625 66.3495C45.625 68.7595 47.59 70.7245 50 70.7245C52.41 70.7245 54.375 68.7595 54.375 66.2945C54.375 63.8995 52.41 61.9495 50 61.9495Z" fill="#230B34"/>
<path className="animate" d="M50 30.7291C47.59 30.7291 45.625 32.6941 45.625 35.1041V49.2441C45.625 51.6591 47.59 53.6191 50 53.6191C52.41 53.6191 54.375 51.6591 54.375 49.2441V35.1041C54.375 32.6941 52.41 30.7291 50 30.7291Z" fill="#230B34"/>
</svg>
