
<svg width="333" height="305" viewBox="0 0 340 305" fill="none" xmlns="http://www.w3.org/2000/svg">
<path className="move" d="M285.364 105.521H39.095C37.4197 101.333 35.0743 91.1135 39.095 83.7422C43.1158 76.3709 55.848 72.8527 61.7116 72.0151C58.0817 69.5022 51.2716 55.5088 61.7116 43.4042C70.381 33.3524 88.7955 36.5545 96.8928 39.3466C95.4967 34.5999 98.0234 22.9653 108.075 18.2747C120.64 12.4114 128.444 21.1976 133.749 25.1065C135.983 15.3339 148.157 -2.871 178.982 2.48995C203.567 6.76556 211.371 29.2948 208.3 39.3466C210.534 33.2038 237.911 25.1065 261.91 39.3466C290.767 56.4695 293.182 89.6055 285.364 105.521Z" fill="white" stroke="black" stroke-width="2.38571"/>
<path className="move" d="M320.004 131.354H215.297C208.876 126.887 197.874 114.937 205.246 102.874C212.617 90.8114 235.68 90.5884 246.29 91.9847C253.829 84.7251 263.546 71.5492 282.309 73.5595C301.073 75.5699 310.789 93.6599 308.277 102.874C312.186 101.478 321.846 101.031 329.218 110.413C336.589 119.795 326.146 128.283 320.004 131.354Z" fill="white" stroke="black" stroke-width="2.38571"/>
<path d="M107.249 209.415L2.32031 153.219L108.402 256.447L107.249 209.415Z" fill="white" stroke="black" stroke-width="2.38571"/>
<path d="M137.239 183.256L2.32031 153.219L107.249 209.415L137.239 183.256Z" fill="white" stroke="black" stroke-width="2.38571"/>
<path d="M107.777 256.009L76.1953 235.763L89.286 223.257C90.4715 222.125 92.4197 222.498 93.1027 223.989L107.777 256.009Z" fill="#D6E4FF" stroke="black" stroke-width="2.38571"/>
<path d="M52.1279 258.132L1.69531 152.781L91.2687 221.571L52.1279 258.132Z" fill="white" stroke="black" stroke-width="2.38571"/>
<path className="animate" d="M111.43 260.355C113.105 271.524 124.329 293.694 155.825 293.024C187.321 292.354 196.311 279.342 196.87 272.92C198.545 266.777 198.21 253.152 183.467 247.791C165.039 241.089 160.934 260.982 163.364 267.057C165.039 271.245 167.552 283.809 201.896 298.887C229.371 310.949 256.901 296.095 267.232 287.16" stroke="black" stroke-width="2.38571" stroke-dasharray="7.16 7.16"/>
</svg>